<?xml version="1.0" encoding="UTF-8" standalone="no" ?>
<!DOCTYPE svg PUBLIC "-//W3C//DTD SVG 1.1//EN" "http://www.w3.org/Graphics/SVG/1.1/DTD/svg11.dtd">
<svg xmlns="http://www.w3.org/2000/svg" xmlns:xlink="http://www.w3.org/1999/xlink" version="1.1" width="540" height="540" viewBox="101.25 101.25 540 540" xml:space="preserve">
<desc>Created with Fabric.js 5.2.4</desc>
<defs>
</defs>
<rect x="0" y="0" width="100%" height="100%" fill="transparent"></rect>
<g transform="matrix(1 0 0 1 270 270)" id="d18713a7-71a9-4dab-9cc4-15cdb0514684"  >
<rect style="stroke: none; stroke-width: 1; stroke-dasharray: none; stroke-linecap: butt; stroke-dashoffset: 0; stroke-linejoin: miter; stroke-miterlimit: 4; fill: rgb(255,255,255); fill-rule: nonzero; opacity: 1; visibility: hidden;" vector-effect="non-scaling-stroke"  x="-270" y="-270" rx="0" ry="0" width="540" height="540" />
</g>
<g transform="matrix(Infinity NaN NaN Infinity 0 0)" id="2a15b6dc-18b3-4e7c-824b-4539f8edc8b4"  >
</g>
<g transform="matrix(1.25 0 0 1.25 373.33 370.22)" id="4ca09ab0-0a56-41d0-880c-5811d1ece408"  >
<path style="stroke: rgb(0,0,0); stroke-width: 0; stroke-dasharray: none; stroke-linecap: butt; stroke-dashoffset: 0; stroke-linejoin: miter; stroke-miterlimit: 4; fill: rgb(255,255,255); fill-rule: nonzero; opacity: 1;" vector-effect="non-scaling-stroke"  transform=" translate(-128, -85.05)" d="M 127.7 34.7 C 127.7 52.6 113.2 67.1 95.30000000000001 67.1 C 77.5 67 63 52.5 63 34.7 C 63 16.8 77.5 2.3 95.3 2.3 C 97.39999999999999 2.3 99.6 2.5 101.6 2.9 L 94 19.2 C 93.7 19.2 93.4 19.2 93 19.2 C 85.4 19.2 79.2 25.4 79.2 33 C 79.2 40.6 85.4 46.8 93 46.8 C 100.6 46.8 106.8 40.599999999999994 106.8 33 C 106.8 29.3 105.3 25.9 102.89999999999999 23.4 L 110.89999999999999 6.299999999999997 C 120.9 11.8 127.7 22.4 127.7 34.7 z M 254 147.9 L 230.7 147.9 C 235.6 146.5 239.79999999999998 143.3 242.7 139 C 246.7 132.8 247.29999999999998 125.2 244.29999999999998 118.5 L 219.49999999999997 63 L 208.19999999999996 58.7 L 223.39999999999995 6.600000000000001 L 208.49999999999994 2.3000000000000016 L 176.29999999999995 112.89999999999999 L 191.19999999999996 117.19999999999999 L 204.69999999999996 70.89999999999999 L 210.09999999999997 72.89999999999999 L 232.79999999999995 123.6 C 234.09999999999997 126.39999999999999 233.79999999999995 129.5 232.09999999999997 132.1 C 230.39999999999998 134.7 227.69999999999996 136.2 224.59999999999997 136.2 L 191 136.2 L 191 148 L 159.5 148 C 159.2 136.9 150.5 128.3 139.8 128.3 L 96.5 128.3 C 96.5 128.3 77.3 77.80000000000001 76.9 77.00000000000001 C 72.9 66.50000000000001 64 58.90000000000001 52.50000000000001 58.90000000000001 C 37.80000000000001 58.90000000000001 26.60000000000001 71.10000000000001 18.60000000000001 88.70000000000002 C 7.9 112.2 2.1 140.4 2 167.8 L 254 167.70000000000002 L 254 147.9 z" stroke-linecap="round" />
</g>
</svg>