<?xml version="1.0" encoding="UTF-8" standalone="no" ?>
<!DOCTYPE svg PUBLIC "-//W3C//DTD SVG 1.1//EN" "http://www.w3.org/Graphics/SVG/1.1/DTD/svg11.dtd">
<svg xmlns="http://www.w3.org/2000/svg" xmlns:xlink="http://www.w3.org/1999/xlink" version="1.1" width="1080" height="1080" viewBox="0 0 1080 1080" xml:space="preserve">
<desc>Created with Fabric.js 5.2.4</desc>
<defs>
</defs>
<g transform="matrix(1 0 0 1 540 540)" id="05bc56b1-6aae-4932-9684-abf0ea74e565"  >
<rect style="stroke: none; stroke-width: 1; stroke-dasharray: none; stroke-linecap: butt; stroke-dashoffset: 0; stroke-linejoin: miter; stroke-miterlimit: 4; fill: rgb(255,255,255); fill-rule: nonzero; opacity: 1; visibility: hidden;" vector-effect="non-scaling-stroke"  x="-540" y="-540" rx="0" ry="0" width="1080" height="1080" />
</g>
<g transform="matrix(1 0 0 1 540 540)" id="185ecf54-a530-4628-bf6b-6b00bcad9016"  >
</g>
<g transform="matrix(1 0 0 1 540 540)"  >
<g style="" vector-effect="non-scaling-stroke"   >
		<g transform="matrix(25 0 0 25 -56.79 -250)"  >
<path style="stroke: none; stroke-width: 1; stroke-dasharray: none; stroke-linecap: butt; stroke-dashoffset: 0; stroke-linejoin: miter; stroke-miterlimit: 4; fill: rgb(255,255,255); fill-rule: nonzero; opacity: 0.44999998807907104;" vector-effect="non-scaling-stroke"  transform=" translate(-13.73, -6)" d="M 20.477 2 L 15.977 10 L 6.977 10 L 11.477 2 L 20.477 2" stroke-linecap="round" />
</g>
		<g transform="matrix(25 0 0 25 55.66 -250)"  >
<path style="stroke: none; stroke-width: 1; stroke-dasharray: none; stroke-linecap: butt; stroke-dashoffset: 0; stroke-linejoin: miter; stroke-miterlimit: 4; fill: rgb(255,255,255); fill-rule: nonzero; opacity: 0.6000000238418579;" vector-effect="non-scaling-stroke"  transform=" translate(-18.23, -6)" d="M 15.975 10 L 24.975 10 L 20.475 2 L 11.475000000000001 2 Z" stroke-linecap="round" />
</g>
		<g transform="matrix(25 0 0 25 -113.04 -150)"  >
<path style="stroke: none; stroke-width: 1; stroke-dasharray: none; stroke-linecap: butt; stroke-dashoffset: 0; stroke-linejoin: miter; stroke-miterlimit: 4; fill: rgb(255,255,255); fill-rule: nonzero; opacity: 0.800000011920929;" vector-effect="non-scaling-stroke"  transform=" translate(-11.48, -10)" d="M 11.477 18 L 15.977 10 L 11.477 2 L 6.977 10 Z" stroke-linecap="round" />
</g>
		<g transform="matrix(25 0 0 25 56.79 250)"  >
<path style="stroke: none; stroke-width: 1; stroke-dasharray: none; stroke-linecap: butt; stroke-dashoffset: 0; stroke-linejoin: miter; stroke-miterlimit: 4; fill: rgb(255,255,255); fill-rule: nonzero; opacity: 0.44999998807907104;" vector-effect="non-scaling-stroke"  transform=" translate(-18.27, -26)" d="M 11.52 30 L 16.02 22 L 25.02 22 L 20.52 30 L 11.52 30" stroke-linecap="round" />
</g>
		<g transform="matrix(25 0 0 25 -55.66 250)"  >
<path style="stroke: none; stroke-width: 1; stroke-dasharray: none; stroke-linecap: butt; stroke-dashoffset: 0; stroke-linejoin: miter; stroke-miterlimit: 4; fill: rgb(255,255,255); fill-rule: nonzero; opacity: 0.6000000238418579;" vector-effect="non-scaling-stroke"  transform=" translate(-13.77, -26)" d="M 16.022 22 L 7.0219999999999985 22 L 11.521999999999998 30 L 20.522 30 Z" stroke-linecap="round" />
</g>
		<g transform="matrix(25 0 0 25 113.04 150)"  >
<path style="stroke: none; stroke-width: 1; stroke-dasharray: none; stroke-linecap: butt; stroke-dashoffset: 0; stroke-linejoin: miter; stroke-miterlimit: 4; fill: rgb(255,255,255); fill-rule: nonzero; opacity: 0.800000011920929;" vector-effect="non-scaling-stroke"  transform=" translate(-20.52, -22)" d="M 20.52 14 L 16.02 22 L 20.52 30 L 25.02 22 Z" stroke-linecap="round" />
</g>
</g>
</g>
</svg>